<svg width="94" height="80" viewBox="0 0 94 80" fill="none" xmlns="http://www.w3.org/2000/svg">
<g filter="url(#filter0_d)">
<g filter="url(#filter1_di)">
<path fill-rule="evenodd" clip-rule="evenodd" d="M31.9668 39.3064C31.5921 41.0891 30.44 42.611 28.8258 43.4552C27.0557 44.381 24.9443 44.381 23.1742 43.4552C21.56 42.611 20.4079 41.0891 20.0332 39.3064L19.9033 38.6883C19.5177 36.8535 19.9315 34.9414 21.0412 33.4302L21.2516 33.1436C22.3615 31.6321 24.1247 30.7393 26 30.7393C27.8753 30.7393 29.6385 31.6321 30.7484 33.1436L30.9588 33.4302C32.0685 34.9414 32.4823 36.8535 32.0967 38.6883L31.9668 39.3064ZM15 56.1331C15 57.1641 15.8357 57.9998 16.8667 57.9998H28.3107C29.0465 54.7308 31.0484 51.8728 33.8751 50.0649C33.3663 49.702 32.8065 49.3995 32.204 49.1696L31.7822 49.0086C28.0584 47.5876 23.9416 47.5876 20.2178 49.0086L19.796 49.1696C16.908 50.2717 15 53.042 15 56.1331ZM77.1333 58L65.6894 58C64.9536 54.731 62.9518 51.873 60.1251 50.065C60.6338 49.7022 61.1936 49.3997 61.796 49.1698L62.2178 49.0089C65.9416 47.5878 70.0584 47.5878 73.7822 49.0089L74.204 49.1698C77.092 50.2719 79 53.0422 79 56.1334C79 57.1643 78.1643 58 77.1333 58ZM62.0332 39.3066C62.4079 41.0894 63.56 42.6112 65.1742 43.4555C66.9443 44.3812 69.0557 44.3812 70.8258 43.4555C72.44 42.6112 73.5921 41.0894 73.9668 39.3066L74.0967 38.6885C74.4823 36.8538 74.0685 34.9416 72.9588 33.4304L72.7484 33.1439C71.6385 31.6323 69.8753 30.7395 68 30.7395C66.1247 30.7395 64.3615 31.6323 63.2516 33.1439L63.0412 33.4304C61.9315 34.9416 61.5177 36.8538 61.9033 38.6885L62.0332 39.3066Z" fill="url(#paint0_linear)" fill-opacity="0.58"/>
</g>
<g filter="url(#filter2_di)">
<path d="M62.8 64.0001L31.2 64.0001C29.4327 64.0001 28 62.5674 28 60.8C28 55.5035 31.2763 50.7592 36.2295 48.8832L37.0611 48.5682C43.4651 46.1428 50.5349 46.1428 56.9389 48.5682L57.7705 48.8832C62.7237 50.7592 66 55.5035 66 60.8C66 62.5674 64.5673 64.0001 62.8 64.0001Z" fill="url(#paint1_linear)" fill-opacity="0.58"/>
<path d="M42.1413 39.078C45.1875 40.6592 48.8125 40.6592 51.8587 39.078C54.6604 37.6237 56.6633 34.9908 57.3172 31.9026L57.5219 30.9361C58.1931 27.7663 57.4742 24.4608 55.5471 21.8561L55.2168 21.4097C53.2894 18.8045 50.2407 17.2677 47 17.2677C43.7593 17.2677 40.7106 18.8045 38.7832 21.4097L38.4529 21.8561C36.5258 24.4608 35.8069 27.7663 36.4781 30.9361L36.6828 31.9026C37.3367 34.9908 39.3396 37.6237 42.1413 39.078Z" fill="url(#paint2_linear)" fill-opacity="0.58"/>
</g>
</g>
<defs>
<filter id="filter0_d" x="-8" y="-15" width="110" height="110" filterUnits="userSpaceOnUse" color-interpolation-filters="sRGB">
<feFlood flood-opacity="0" result="BackgroundImageFix"/>
<feColorMatrix in="SourceAlpha" type="matrix" values="0 0 0 0 0 0 0 0 0 0 0 0 0 0 0 0 0 0 127 0"/>
<feOffset/>
<feGaussianBlur stdDeviation="7.5"/>
<feColorMatrix type="matrix" values="0 0 0 0 0 0 0 0 0 0 0 0 0 0 0 0 0 0 0.25 0"/>
<feBlend mode="normal" in2="BackgroundImageFix" result="effect1_dropShadow"/>
<feBlend mode="normal" in="SourceGraphic" in2="effect1_dropShadow" result="shape"/>
</filter>
<filter id="filter1_di" x="11" y="30.7393" width="72" height="35.2608" filterUnits="userSpaceOnUse" color-interpolation-filters="sRGB">
<feFlood flood-opacity="0" result="BackgroundImageFix"/>
<feColorMatrix in="SourceAlpha" type="matrix" values="0 0 0 0 0 0 0 0 0 0 0 0 0 0 0 0 0 0 127 0"/>
<feOffset dy="4"/>
<feGaussianBlur stdDeviation="2"/>
<feColorMatrix type="matrix" values="0 0 0 0 0 0 0 0 0 0 0 0 0 0 0 0 0 0 0.25 0"/>
<feBlend mode="normal" in2="BackgroundImageFix" result="effect1_dropShadow"/>
<feBlend mode="normal" in="SourceGraphic" in2="effect1_dropShadow" result="shape"/>
<feColorMatrix in="SourceAlpha" type="matrix" values="0 0 0 0 0 0 0 0 0 0 0 0 0 0 0 0 0 0 127 0" result="hardAlpha"/>
<feOffset dy="4"/>
<feGaussianBlur stdDeviation="2"/>
<feComposite in2="hardAlpha" operator="arithmetic" k2="-1" k3="1"/>
<feColorMatrix type="matrix" values="0 0 0 0 0 0 0 0 0 0 0 0 0 0 0 0 0 0 0.25 0"/>
<feBlend mode="normal" in2="shape" result="effect2_innerShadow"/>
</filter>
<filter id="filter2_di" x="24" y="16" width="46" height="56.0002" filterUnits="userSpaceOnUse" color-interpolation-filters="sRGB">
<feFlood flood-opacity="0" result="BackgroundImageFix"/>
<feColorMatrix in="SourceAlpha" type="matrix" values="0 0 0 0 0 0 0 0 0 0 0 0 0 0 0 0 0 0 127 0"/>
<feOffset dy="4"/>
<feGaussianBlur stdDeviation="2"/>
<feColorMatrix type="matrix" values="0 0 0 0 0 0 0 0 0 0 0 0 0 0 0 0 0 0 0.25 0"/>
<feBlend mode="normal" in2="BackgroundImageFix" result="effect1_dropShadow"/>
<feBlend mode="normal" in="SourceGraphic" in2="effect1_dropShadow" result="shape"/>
<feColorMatrix in="SourceAlpha" type="matrix" values="0 0 0 0 0 0 0 0 0 0 0 0 0 0 0 0 0 0 127 0" result="hardAlpha"/>
<feOffset dy="4"/>
<feGaussianBlur stdDeviation="2"/>
<feComposite in2="hardAlpha" operator="arithmetic" k2="-1" k3="1"/>
<feColorMatrix type="matrix" values="0 0 0 0 0 0 0 0 0 0 0 0 0 0 0 0 0 0 0.25 0"/>
<feBlend mode="normal" in2="shape" result="effect2_innerShadow"/>
</filter>
<linearGradient id="paint0_linear" x1="47" y1="30.7393" x2="47" y2="58" gradientUnits="userSpaceOnUse">
<stop offset="0.619792" stop-color="#FF00E5"/>
<stop offset="1" stop-color="#0500FF" stop-opacity="0.22"/>
</linearGradient>
<linearGradient id="paint1_linear" x1="47" y1="44.804" x2="47" y2="64.0001" gradientUnits="userSpaceOnUse">
<stop stop-color="#0500FF"/>
<stop offset="1" stop-color="#FF00E5"/>
</linearGradient>
<linearGradient id="paint2_linear" x1="47" y1="41.6001" x2="47" y2="16.0001" gradientUnits="userSpaceOnUse">
<stop stop-color="#0500FF"/>
<stop offset="1" stop-color="#FF00E5"/>
</linearGradient>
</defs>
</svg>
